<?xml version="1.0" encoding="utf-8"?>
<!-- Generator: Adobe Illustrator 18.1.1, SVG Export Plug-In . SVG Version: 6.00 Build 0)  -->
<svg version="1.1" id="Layer_1" xmlns="http://www.w3.org/2000/svg" xmlns:xlink="http://www.w3.org/1999/xlink" x="0px" y="0px"
	 width="200px" height="150px" viewBox="-439 466 200 150" enable-background="new -439 466 200 150" xml:space="preserve">
<g>
	<g>
		<path fill="#2196FC" d="M-248.2,506.3h-107.1c-5.4,0-5.4,0-5.4,5.4v70.6c0,5.4,0,5.4,5.4,5.4h107.1c5.4,0,5.4,0,5.4-5.4v-70.5
			C-242.8,506.3-242.8,506.3-248.2,506.3z"/>
		<g>
			<polygon fill="#2196FC" points="-292.4,616 -292.4,578.5 -329.9,578.5 			"/>
		</g>
	</g>
	<path fill="#2DC36F" d="M-322.7,476h-107.1c-5.4,0-5.4,0-5.4,5.4V552c0,5.4,0,5.4,5.4,5.4h107.1c5.4,0,5.4,0,5.4-5.4v-70.6
		C-317.4,476-317.4,476-322.7,476z"/>
	<polygon fill="#2DC36F" points="-357.5,551 -395,551 -395,588.5 	"/>
</g>
</svg>
