<?xml version="1.0" encoding="UTF-8" standalone="no"?>
<svg width="137px" height="102px" viewBox="0 0 137 102" version="1.1" xmlns="http://www.w3.org/2000/svg" xmlns:xlink="http://www.w3.org/1999/xlink" xmlns:sketch="http://www.bohemiancoding.com/sketch/ns">
    <!-- Generator: Sketch 3.2.2 (9983) - http://www.bohemiancoding.com/sketch -->
    <title>Imported Layers</title>
    <desc>Created with Sketch.</desc>
    <defs></defs>
    <g id="Page-1" stroke="none" stroke-width="1" fill="none" fill-rule="evenodd" sketch:type="MSPage">
        <g id="trust-testiomonials-2" sketch:type="MSArtboardGroup" transform="translate(-366.000000, -1573.000000)">
            <g id="Imported-Layers" sketch:type="MSLayerGroup" transform="translate(368.000000, 1575.000000)">
                <path d="M56.3504423,79.9478077 C53.2786154,79.9478077 50.2054615,79.7616154 47.2596923,79.4499744 C39.0447115,86.6850641 29.2652885,91.8020513 18.4176923,94.5473974 C16.16325,95.172 13.7150769,95.6090897 11.2708846,95.9207308 C9.89221154,96.0461795 8.57590385,95.0465513 8.26142308,93.5490897 L8.26142308,93.4870256 C7.94826923,91.9275 9.01511538,90.9899359 9.95457692,89.8688205 C13.9048269,85.4398205 18.4176923,81.6948462 21.3661154,71.2746795 C8.45117308,63.9748846 0.173826923,52.681859 0.173826923,40.0155 C0.173826923,17.9919872 25.3150385,0.0845128205 56.3504423,0.0845128205 C87.3858462,0.0845128205 112.525731,17.9286026 112.525731,40.0155 C112.525731,62.1037179 87.3858462,79.9478077 56.3504423,79.9478077 L56.3504423,79.9478077 Z" id="Stroke-1" stroke="#1D7891" stroke-width="4" sketch:type="MSShapeGroup"></path>
                <path d="M59.2219038,61.5491026 C59.2219038,46.6642821 76.1653846,34.6383718 97.0816731,34.6383718 C117.996635,34.6383718 134.940115,46.7065385 134.940115,61.5491026 C134.940115,70.0848974 129.361731,77.6963333 120.658442,82.6152436 C122.644846,89.6377308 125.686154,92.1612308 128.349288,95.1469103 C128.982231,95.9022436 129.701423,96.5334487 129.490442,97.5858974 C129.490442,97.5858974 129.490442,97.5858974 129.490442,97.6268333 C129.278135,98.6370256 128.390423,99.3091667 127.461577,99.2246538 C125.813538,99.0146923 124.164173,98.7215385 122.644846,98.2989744 C115.334827,96.4502564 108.744,93.0010769 103.20675,88.1244231 C101.221673,88.3343846 99.1503462,88.4611538 97.0816731,88.4611538 C76.1653846,88.4611538 59.2219038,76.4352436 59.2219038,61.5491026" id="Fill-2" fill="#41B7CC" sketch:type="MSShapeGroup"></path>
            </g>
        </g>
    </g>
</svg>