<?xml version="1.0" encoding="UTF-8" standalone="no"?>
<!-- Generator: Adobe Illustrator 17.0.0, SVG Export Plug-In . SVG Version: 6.00 Build 0)  -->

<svg
   xmlns:dc="http://purl.org/dc/elements/1.1/"
   xmlns:cc="http://creativecommons.org/ns#"
   xmlns:rdf="http://www.w3.org/1999/02/22-rdf-syntax-ns#"
   xmlns:svg="http://www.w3.org/2000/svg"
   xmlns="http://www.w3.org/2000/svg"
   xmlns:sodipodi="http://sodipodi.sourceforge.net/DTD/sodipodi-0.dtd"
   xmlns:inkscape="http://www.inkscape.org/namespaces/inkscape"
   version="1.1"
   id="Layer_1"
   x="0px"
   y="0px"
   width="80"
   height="80"
   viewBox="0 0 80 80"
   enable-background="new 0 0 188 188"
   xml:space="preserve"
   inkscape:version="0.48.4 r9939"
   sodipodi:docname="verif-80x80.svg"
   inkscape:export-filename="/home/puneet/inkscape/verif-80x80.png"
   inkscape:export-xdpi="90"
   inkscape:export-ydpi="90"><metadata
     id="metadata23"><rdf:RDF><cc:Work
         rdf:about=""><dc:format>image/svg+xml</dc:format><dc:type
           rdf:resource="http://purl.org/dc/dcmitype/StillImage" /><dc:title /></cc:Work></rdf:RDF></metadata><defs
     id="defs21" /><sodipodi:namedview
     pagecolor="#ffffff"
     bordercolor="#666666"
     borderopacity="1"
     objecttolerance="10"
     gridtolerance="10"
     guidetolerance="10"
     inkscape:pageopacity="0"
     inkscape:pageshadow="2"
     inkscape:window-width="1366"
     inkscape:window-height="744"
     id="namedview19"
     showgrid="true"
     inkscape:zoom="2.3797881"
     inkscape:cx="5.0916074"
     inkscape:cy="99.867387"
     inkscape:window-x="0"
     inkscape:window-y="24"
     inkscape:window-maximized="1"
     inkscape:current-layer="Layer_1"><inkscape:grid
       type="xygrid"
       id="grid4283"
       empspacing="4"
       visible="true"
       enabled="true"
       snapvisiblegridlinesonly="true" /></sodipodi:namedview><rect
     style="fill:#ffffff;fill-opacity:1;stroke:none"
     id="rect4285"
     width="80"
     height="80"
     x="0"
     y="0" /><path
     style="fill:#ea6830"
     inkscape:connector-curvature="0"
     id="path5"
     d="M 48.863564,17.805735 C 61.12126,22.701035 67.089595,36.605936 62.194648,48.863279 57.299701,61.120621 43.394446,67.08931 31.137104,62.194363 18.879761,57.299416 12.911073,43.394161 17.80602,31.136819 22.700967,18.878769 36.606221,12.910081 48.863564,17.805735 z" /><path
     d="m 72,40 c 0,7.911 -2.8765,15.146 -7.633,20.7315 l 5.9305,5.937 c 0.5765,0.5775 0.647,1.4435 0.157,1.9345 l -2.663,2.6655 c -0.49,0.4905 -1.3555,0.4205 -1.932,-0.157 L 59.847,65.0925 C 54.3915,69.4135 47.5,72 40,72 22.327,72 8,57.6735 8,40 8,22.327 22.3265,8 40,8 57.673,8 72,22.3265 72,40 z M 12,40 C 12,55.464 24.536,68 40,68 55.464,68 68,55.464 68,40 68,24.536 55.464,12 40,12 24.536,12 12,24.536 12,40 z"
     id="path9"
     inkscape:connector-curvature="0"
     style="fill:#8b8686" /><path
     d="m 31.13675,62.194009 0,0 17.726814,-44.388274 0,0 C 61.12126,22.701035 67.089595,36.605936 62.194648,48.863279 57.298994,61.120621 43.394446,67.08931 31.13675,62.194009 z"
     id="path11"
     inkscape:connector-curvature="0"
     style="fill:#ce5723" /><path
     d="m 37.452628,32.565528 c 0.746705,-1.86959 -0.163695,-3.990557 -2.033639,-4.737615 -1.86959,-0.746705 -3.990911,0.164048 -4.737615,2.033639 -0.746705,1.86959 0.163695,3.990557 2.033639,4.737615 1.869944,0.746351 3.99091,-0.164049 4.737615,-2.033639 z m -12.831867,0.596091 c -1.246275,-0.498157 -2.660489,0.109248 -3.158646,1.355524 -0.498156,1.246275 0.109248,2.660489 1.355524,3.158646 1.246276,0.498156 2.660489,-0.109248 3.158646,-1.355524 0.498157,-1.246983 -0.108541,-2.661196 -1.355524,-3.158646 z m 3.840297,10.665292 c -2.389313,-0.954595 -5.098947,0.209303 -6.053541,2.598617 -0.95424,2.389667 0.209657,5.099301 2.598618,6.053541 2.389313,0.953887 5.0993,-0.209657 6.053541,-2.598617 0.953533,-2.389668 -0.209657,-5.100008 -2.598618,-6.053541 z m 16.198403,7.770396 c -1.610083,-0.64276 -3.436539,0.140714 -4.079653,1.75115 -0.643114,1.609729 0.140714,3.436539 1.75115,4.079653 1.610082,0.64276 3.436539,-0.140715 4.079652,-1.75115 0.643114,-1.609729 -0.141067,-3.436186 -1.751149,-4.079653 z M 50.337528,33.77963 c -1.142685,-0.456083 -2.438458,0.100056 -2.895249,1.242741 -0.456437,1.143038 0.0997,2.438811 1.24274,2.895248 1.143039,0.456438 2.438458,-0.100055 2.895249,-1.24274 0.456084,-1.142684 -0.100055,-2.438458 -1.24274,-2.895249 z m 6.442096,13.354773 c 0.912875,-2.285369 -0.199757,-4.877977 -2.485126,-5.790851 -2.28537,-0.912875 -4.877977,0.199757 -5.790498,2.48548 -0.912875,2.285369 0.200111,4.877623 2.48548,5.790497 2.285016,0.912522 4.877269,-0.199757 5.790144,-2.485126 z M 44.208326,29.464865 C 50.11585,31.824127 56.32354,32.194651 62.0953,30.900292 59.721188,25.135604 55.11262,20.29864 48.865685,17.803613 42.618397,15.308234 35.945784,15.640927 30.253574,18.18439 c 3.291936,4.913332 8.047229,8.921213 13.954752,11.280475 z"
     id="path17"
     inkscape:connector-curvature="0"
     style="fill:#383838" /></svg>