<?xml version="1.0" encoding="UTF-8" standalone="no"?>
<!-- Created with Inkscape (http://www.inkscape.org/) -->

<svg
   xmlns:dc="http://purl.org/dc/elements/1.1/"
   xmlns:cc="http://creativecommons.org/ns#"
   xmlns:rdf="http://www.w3.org/1999/02/22-rdf-syntax-ns#"
   xmlns:svg="http://www.w3.org/2000/svg"
   xmlns="http://www.w3.org/2000/svg"
   xmlns:sodipodi="http://sodipodi.sourceforge.net/DTD/sodipodi-0.dtd"
   xmlns:inkscape="http://www.inkscape.org/namespaces/inkscape"
   width="79.999977"
   height="80.000038"
   id="svg6826"
   version="1.1"
   inkscape:version="0.48.4 r9939"
   sodipodi:docname="vlang-discourse-logo-small.svg"
   inkscape:export-filename="/home/puneet/inkscape/vlang-discourse-logo-small.png"
   inkscape:export-xdpi="90"
   inkscape:export-ydpi="90">
  <defs
     id="defs6828" />
  <sodipodi:namedview
     id="base"
     pagecolor="#ffffff"
     bordercolor="#666666"
     borderopacity="1.0"
     inkscape:pageopacity="0.0"
     inkscape:pageshadow="2"
     inkscape:zoom="3.4084757"
     inkscape:cx="13.590158"
     inkscape:cy="39.500025"
     inkscape:document-units="px"
     inkscape:current-layer="layer1"
     showgrid="true"
     fit-margin-top="0"
     fit-margin-left="0"
     fit-margin-right="0"
     fit-margin-bottom="0"
     showborder="false"
     inkscape:window-width="1366"
     inkscape:window-height="744"
     inkscape:window-x="0"
     inkscape:window-y="24"
     inkscape:window-maximized="1">
    <inkscape:grid
       type="xygrid"
       id="grid6851"
       empspacing="4"
       visible="false"
       enabled="true"
       snapvisiblegridlinesonly="true"
       originx="-423.50002px"
       originy="-465.49998px" />
  </sodipodi:namedview>
  <metadata
     id="metadata6831">
    <rdf:RDF>
      <cc:Work
         rdf:about="">
        <dc:format>image/svg+xml</dc:format>
        <dc:type
           rdf:resource="http://purl.org/dc/dcmitype/StillImage" />
        <dc:title />
      </cc:Work>
    </rdf:RDF>
  </metadata>
  <g
     inkscape:label="Layer 1"
     inkscape:groupmode="layer"
     id="layer1"
     transform="translate(-423.50002,-506.86217)">
    <g
       id="g6708"
       transform="matrix(1.25,0,0,1.25,172.11677,258.57367)"
       style="fill:#000000;fill-opacity:0.09411765;stroke:none">
      <path
         d="m 233.37901,198.63088 c -17.52132,0 -32.27241,14.07678 -32.27241,31.44131 0,0.56262 0.0115,32.55864 0.0115,32.55864 l 32.26103,-0.0339 c 17.52245,0 31.72745,-14.61909 31.72745,-31.98138 0,-17.36567 -14.205,-31.98475 -31.72745,-31.98475 z"
         id="path3075"
         inkscape:connector-curvature="0"
         style="fill:#000000;fill-opacity:0.09411765;stroke:none" />
      <path
         d="m 233.32457,205.03086 c -14.01706,0 -25.81792,11.26141 -25.81792,25.15305 0,0.45011 0.0102,26.04693 0.0102,26.04693 l 25.80882,-0.0272 c 14.01796,0 25.38195,-11.69527 25.38195,-25.5851 0,-13.89254 -11.36399,-25.5878 -25.38195,-25.5878 z"
         id="path3075-3"
         inkscape:connector-curvature="0"
         style="fill:#000000;fill-opacity:0.09411765;stroke:none" />
      <path
         d="m 233.27014,211.43087 c -10.51279,0 -19.36345,8.44605 -19.36345,18.86477 0,0.33758 0.008,19.53521 0.008,19.53521 l 19.35662,-0.0204 c 10.51348,0 19.03647,-8.77147 19.03647,-19.18884 0,-10.41939 -8.52299,-19.19085 -19.03647,-19.19085 z"
         id="path3075-33"
         inkscape:connector-curvature="0"
         style="fill:#000000;fill-opacity:0.09411765;stroke:none" />
      <path
         d="m 233.2157,217.83084 c -7.00852,0 -12.90897,5.63072 -12.90897,12.57653 0,0.22506 0.004,13.02347 0.004,13.02347 l 12.90442,-0.0142 c 7.00898,0 12.69099,-5.84764 12.69099,-12.79255 0,-6.94628 -5.68201,-12.7939 -12.69099,-12.7939 z"
         id="path3075-9"
         inkscape:connector-curvature="0"
         style="fill:#000000;fill-opacity:0.09411765;stroke:none" />
    </g>
    <path
       style="fill:#3771c8;fill-opacity:1;stroke:#ffffff;stroke-width:2;stroke-miterlimit:4;stroke-opacity:1;stroke-dasharray:none"
       id="path3956-1-3-6-3-1-3-6-0-7-4-4-7-2-5-6-2-4-6-2"
       d="m 456.49999,553.86217 c 2,8 6,4 12,-8 14,-28 20,-38 30,-38 4,0 4,2 4,2 -2,10 -2,10 -2,10 0,0 -6,2 -22,34 -8,15.99998 -14,20 -20,20 -6,0 -12,-4 -16,-24 0,-2 -3.84998,-3.86892 -4,-8 0,-4 4,-10 8,-10 4,0 5.99998,2 10,22 z"
       sodipodi:nodetypes="ccssccccccc"
       inkscape:connector-curvature="0" />
  </g>
</svg>
